PathFileType	4	(X/Y/Z)	T1_P2_Vision_NoMovement_1_0-732.trc
DataRate	CameraRate	NumFrames	NumMarkers	Units	OrigDataRate	OrigDataStartFrame	OrigNumFrames
60	60	5	27	m	60	549	732
Frame#	Time	RHip			RKnee			RAnkle			RBigToe			RSmallToe			RHeel			LHip			LKnee			LAnkle			LBigToe			LSmallToe			LHeel			Neck			Head			Nose			RShoulder			RElbow			RWrist			RThumb			RIndex			RPinky			LShoulder			LElbow			LWrist			LThumb			LIndex			LPinky		
		X1	Y1	Z1	X2	Y2	Z2	X3	Y3	Z3	X4	Y4	Z4	X5	Y5	Z5	X6	Y6	Z6	X7	Y7	Z7	X8	Y8	Z8	X9	Y9	Z9	X10	Y10	Z10	X11	Y11	Z11	X12	Y12	Z12	X13	Y13	Z13	X14	Y14	Z14	X15	Y15	Z15	X16	Y16	Z16	X17	Y17	Z17	X18	Y18	Z18	X19	Y19	Z19	X20	Y20	Z20	X21	Y21	Z21	X22	Y22	Z22	X23	Y23	Z23	X24	Y24	Z24	X25	Y25	Z25	X26	Y26	Z26	X27	Y27	Z27
550	9.166666666666666	450.2187237980993	3708.814989169705	658.7349239288105	839.6597529317372	3726.882014264149	645.9081108053334	1210.958726959409	3729.801351381208	665.1713777212979	1295.2851685178123	3646.6461504947024	651.6974608599559	1289.64764180539	3700.1343947340647	609.2322126498937	1285.3635791593974	3817.31782930485	746.7703359680473	460.3058486062592	3634.4126133192385	859.2011051647344	848.8118460099886	3627.551980965241	862.8445257207466	1240.0118408741396	3694.585877321403	869.6560427263313	1305.8481162169307	3544.125921235818	801.6689220342545	1288.2109297422455	3539.1366003967014	845.9943582173855	1259.9163997243932	3707.2546408629914	857.9966324568451	-126.14284625350305	3628.0704511271456	753.1464745338399	-384.0860612535158	3586.8243938325327	707.5473229592257	-256.1832865312084	3542.833494063715	713.3338301674546	-40.78019964164125	3708.6414875772152	617.4080523849673	199.16191208147865	3715.26717876556	546.8738775066385	341.47344458471986	3558.7050642368313	632.0004933684634	416.26876418975826	3527.550258925369	717.6221680903581	441.1553496129217	3520.839455063037	724.4642797759956	461.2455312702922	3500.484133983277	702.2174502450531	-43.244818675488496	3595.9501656911443	922.831909037428	206.98192960345733	3515.007413652857	926.2941215422676	341.3832387649136	3462.891501953834	721.3801300720812	387.4719118271329	3479.9399391390593	633.008431414075	428.394763177181	3498.924487333907	634.5690617975087	447.4919829177577	3484.439181445377	691.3361902961265
551	9.183333333333334	450.212896307796	3708.809136619784	658.6490835807208	835.8957126046038	3721.6723998929274	644.1962340232625	1208.733680737851	3726.584752368674	663.0917447170227	1295.6270896251126	3648.871635097318	653.5151075240583	1291.3037053132136	3702.6423108354625	609.5256023316216	1283.1403944403398	3815.681572785217	746.3674846549136	460.3934943261529	3633.9612574801304	858.8405455187547	848.6495884360138	3630.1834728798044	863.7558218428229	1238.669825037643	3692.8675397361967	868.9277055623347	1306.975416251885	3543.986516716562	803.1911743845162	1288.1925058184815	3539.005457219631	845.9175436865544	1259.0827506669712	3707.0589656084658	857.7499277664497	-126.12342639725603	3628.089672410072	753.1573905496103	-384.07197239315303	3586.837509539081	707.5617237038723	-256.30966556146933	3547.766943503577	717.8234723253263	-40.79960817012043	3708.7486928839157	617.4490319297568	199.17880732657122	3715.321319512171	546.9035563307752	341.49624798941403	3558.7054665977766	632.0424363495506	415.5345321234595	3527.8152732321964	717.3022960214983	441.1817952831912	3521.191265093071	727.8458388045775	460.27956210381853	3499.6471789254274	701.4202021652861	-43.322870824354055	3593.5664982999524	921.8816893453486	206.01929060373328	3516.555089695075	928.1420448877585	341.3034246315531	3462.5797974564475	721.8726153519517	387.6865502774615	3481.6651763236055	633.5028995193104	427.66500029036274	3500.483997929444	634.8760230591503	448.16542623682125	3483.337463971389	690.7978942087938
552	9.2	450.2812032509096	3708.885511098479	658.7262943361675	834.6773541972454	3715.9663908137563	642.3128550861516	1206.3849327102917	3725.5496434869347	663.0228616488687	1296.33516919497	3651.2809526301453	655.3833466133183	1292.186949838926	3704.1297614870628	609.7329375171215	1280.9407875207366	3814.044550250449	745.9727078241519	460.7305527676501	3633.0526318407133	858.1997284167572	849.473363534467	3634.5776808090563	865.1046203953297	1238.0334315331083	3690.125086277257	867.5594397979198	1309.529611857669	3548.2602013487663	806.2509537423455	1288.5438434318007	3538.1689568398183	846.2689670736945	1258.9760790097098	3706.0697244983394	857.0740724060277	-126.2531187007447	3628.0967456826475	753.1773325684072	-385.2142408349127	3587.8497043116354	708.1338111788926	-256.3764845098669	3550.30724002258	720.0363320027897	-40.80254817765313	3708.75166858908	617.4375879950288	199.18825981717646	3715.3407152801074	546.9485249548198	341.4945597340439	3558.707348546205	632.0777328148981	414.8625954463227	3528.7954783752634	717.0131261077279	439.9518371560318	3519.8704942325035	729.9658944524643	459.9046525103157	3499.5024772625084	701.4566734231477	-43.41624834795996	3590.6330706112562	921.0430271035817	206.34496278457897	3518.3885508807157	930.2377721071265	341.32757909628003	3461.973350355264	722.8989200904297	387.33225528603714	3479.5745705626255	632.719922927726	426.13533145951834	3499.6451678705953	634.8405028720283	447.7153338038429	3478.6409473694835	689.3078814782101
553	9.216666666666669	450.4258154925945	3708.9600834973703	659.3323427658271	836.6457542463137	3713.466171922505	642.0196156779341	1205.5268493204799	3728.157972778363	665.7780811344697	1297.3327840083334	3652.957130789586	656.5190680033774	1292.0048623787436	3704.97754983535	610.0892618809099	1278.8236859914043	3812.4381045439086	745.6164333616701	461.3481798602249	3632.2233806636277	857.9383146097066	850.8782359323031	3639.0044441755535	866.3778604506252	1238.9768011178787	3687.823353940687	866.2210560919817	1311.2702812155633	3552.102198860366	808.4512794970796	1289.1364277079779	3536.8861445437233	847.2580243661856	1259.4397128158166	3704.2736159342326	856.0303330121975	-126.35943056257113	3628.125515998171	753.2128529475978	-386.84773323542686	3589.28978576439	708.9292864196944	-256.35152938213383	3549.5555082028836	719.2522603915313	-40.784428684527306	3708.6816729434827	617.4005957446343	199.1998808302143	3715.344329264159	547.0045314227316	341.46998281610774	3558.7277602775353	632.1188768018998	414.35058845341365	3530.135761130253	717.2777995340213	437.82060772732586	3518.537168162844	730.9031991105999	460.66922865781817	3501.099878426103	703.6365843989092	-43.39518555721877	3590.8237807332907	922.1960307537765	207.7376537121064	3519.8298585141706	932.0188743067885	341.335908603406	3461.0860135430007	724.3462989047346	386.8082505162912	3476.0987159172746	631.6242632999774	424.2922448105764	3497.81919254056	634.7358577838044	447.1642358411796	3472.287909351145	688.3846892282635
554	9.233333333333333	450.55580698884404	3708.78972475689	660.6919584279099	839.6846861186336	3714.7946667310152	643.8016271324032	1205.958187683248	3731.6994891577306	668.9682089956859	1298.380155073794	3654.101479313519	657.2225640033154	1291.6136034621343	3706.272826563887	610.6925599868451	1277.236759918022	3811.198987127614	745.3688773023428	461.9486149493831	3633.1692729142014	859.6742053978508	851.6548624600205	3640.8233510636182	866.8477597798133	1240.4988191692833	3686.6731556188856	865.4231146970269	1310.9772866835171	3552.824176329246	808.9505046377018	1289.5364844653786	3535.976431861591	848.7132843409148	1259.2965588766417	3702.2584588605273	855.0243219283634	-126.41316306804643	3628.1584578593593	753.2484695299872	-388.105698065721	3590.396201364467	709.5155607063792	-256.31048240159936	3548.3674820526016	718.1164645510113	-40.75231479779898	3708.5976307890037	617.3720120460104	199.22535314128498	3715.3539671417007	547.0682083127004	341.42556903040577	3558.7914463135494	632.1792224593554	413.4730402271425	3530.913816348956	717.6306141552167	435.8141665096186	3518.6545694642737	731.4563700467634	462.287842653126	3504.4743567456867	708.2577471045026	-43.27455101756193	3594.5574372780484	924.9826504203975	209.14862806232117	3520.4372328527697	933.1834532799645	341.33853444056905	3460.3946905883727	725.5234256515974	386.58430549386026	3474.092406678542	631.0320487778549	423.0101488495437	3496.9583750346474	634.8481348258005	447.58513396270723	3470.896223968562	690.6869939325733
